<svg xmlns="http://www.w3.org/2000/svg" width="24" height="24" viewBox="363.0 1329.0 24 24" fill="none"><path d="M371 1342V1334.5C371 1334.1 371.158 1333.72 371.439 1333.44C371.721 1333.16 372.102 1333 372.5 1333C372.898 1333 373.279 1333.16 373.561 1333.44C373.842 1333.72 374 1334.1 374 1334.5V1341" stroke="#FFFFFF" stroke-width="2" stroke-linecap="round" stroke-linejoin="round"/>
<path d="M374 1334.5V1332.5C374 1332.3 374.039 1332.11 374.114 1331.93C374.19 1331.74 374.3 1331.58 374.439 1331.44C374.579 1331.3 374.744 1331.19 374.926 1331.11C375.108 1331.04 375.303 1331 375.5 1331C375.697 1331 375.892 1331.04 376.074 1331.11C376.256 1331.19 376.421 1331.3 376.561 1331.44C376.7 1331.58 376.81 1331.74 376.886 1331.93C376.961 1332.11 377 1332.3 377 1332.5V1341" stroke="#FFFFFF" stroke-width="2" stroke-linecap="round" stroke-linejoin="round"/>
<path d="M377 1334.5C377 1334.1 377.158 1333.72 377.439 1333.44C377.721 1333.16 378.102 1333 378.5 1333C378.898 1333 379.279 1333.16 379.561 1333.44C379.842 1333.72 380 1334.1 380 1334.5V1341" stroke="#FFFFFF" stroke-width="2" stroke-linecap="round" stroke-linejoin="round"/>
<path d="M380 1336.5C380 1336.1 380.158 1335.72 380.439 1335.44C380.721 1335.16 381.102 1335 381.5 1335C381.898 1335 382.279 1335.16 382.561 1335.44C382.842 1335.72 383 1336.1 383 1336.5V1345C383 1346.59 382.368 1348.12 381.243 1349.24C380.117 1350.37 378.591 1351 377 1351H375H375.208C374.214 1351 373.236 1350.75 372.361 1350.28C371.487 1349.81 370.742 1349.13 370.196 1348.3C370.13 1348.2 370.065 1348.1 370 1348C369.688 1347.52 368.593 1345.61 366.714 1342.27C366.522 1341.93 366.471 1341.53 366.571 1341.15C366.671 1340.77 366.915 1340.45 367.25 1340.25C367.607 1340.04 368.025 1339.95 368.438 1340C368.851 1340.05 369.235 1340.24 369.53 1340.53L371 1342" stroke="#FFFFFF" stroke-width="2" stroke-linecap="round" stroke-linejoin="round"/></svg>