<svg xmlns="http://www.w3.org/2000/svg" width="24" height="24" viewBox="614.0 1261.0 24 24" fill="none"><path d="M625.998 1263L626.03 1263L626.116 1263.01C626.235 1263.02 626.351 1263.06 626.458 1263.11L626.563 1263.17L626.66 1263.25L626.676 1263.26L626.923 1263.47C628.94 1265.15 631.49 1266.05 634.112 1266.01L634.454 1266C634.677 1265.99 634.898 1266.06 635.08 1266.19C635.262 1266.32 635.396 1266.5 635.459 1266.72C635.95 1268.39 636.101 1270.14 635.901 1271.87C635.701 1273.6 635.156 1275.28 634.297 1276.79C633.438 1278.31 632.283 1279.64 630.901 1280.7C629.519 1281.76 627.937 1282.53 626.251 1282.97C626.086 1283.01 625.914 1283.01 625.749 1282.97C624.062 1282.53 622.481 1281.76 621.099 1280.7C619.716 1279.64 618.561 1278.31 617.702 1276.79C616.843 1275.28 616.297 1273.6 616.098 1271.87C615.898 1270.14 616.049 1268.39 616.54 1266.72C616.603 1266.5 616.736 1266.32 616.919 1266.19C617.101 1266.06 617.321 1265.99 617.545 1266C620.401 1266.13 623.195 1265.15 625.336 1263.25L625.382 1263.21L625.435 1263.17C625.502 1263.13 625.575 1263.09 625.652 1263.06L625.727 1263.04L625.763 1263.03C625.802 1263.02 625.842 1263.01 625.883 1263.01L625.969 1263L625.998 1263ZM626 1265.3L625.824 1265.43C623.711 1267.01 621.17 1267.9 618.536 1268L618.272 1268.01L618.208 1268.32C617.741 1270.76 618.116 1273.29 619.272 1275.49L619.442 1275.81C620.854 1278.3 623.182 1280.14 625.932 1280.94L626 1280.96V1265.3Z" fill="#FFFFFF"/></svg>